<svg width="704" height="186" viewBox="0 0 704 186" fill="none" xmlns="http://www.w3.org/2000/svg">
<path fill-rule="evenodd" clip-rule="evenodd" d="M93 0L0 93L38.633 131.633L12.1682 158.096L7.9181 162.347L0.0288086 170.24L7.92334 178.134L15.789 186L22.9809 178.808C23.2335 178.597 23.4782 178.372 23.715 178.136L54.425 147.425L93 186L131.605 147.395L162.346 178.136C162.457 178.247 162.568 178.355 162.682 178.459L170.224 186L177.484 178.737C177.704 178.549 177.925 178.348 178.129 178.14C178.334 177.931 178.537 177.715 178.727 177.495L185.975 170.245L178.725 162.995C178.537 162.775 178.337 162.559 178.129 162.35L147.389 131.611L186 93L93 0ZM131.6 115.822L154.422 93L93 31.5794L31.5781 93L54.4224 115.844L93.0236 77.245L131.6 115.822ZM70.2139 131.636L93 154.422L115.816 131.605L93.0301 108.819L70.2139 131.636Z" fill="white"/>
<path d="M285.083 83.9584H303.847L272.468 46.6757L302.999 10.0285H285.083L258.156 43.1804V10.0285H243.315V83.9584H258.156V51.0183L285.083 83.9584Z" fill="white"/>
<path d="M309.793 54.4076C309.793 72.7312 321.666 84.9116 336.508 84.9116C345.837 84.9116 352.515 80.4631 356.014 75.3791V83.9584H370.961V25.2805H356.014V33.6479C352.515 28.7758 346.049 24.3273 336.614 24.3273C321.666 24.3273 309.793 36.084 309.793 54.4076ZM356.014 54.6194C356.014 65.7407 348.593 71.8839 340.43 71.8839C332.479 71.8839 324.953 65.5288 324.953 54.4076C324.953 43.2864 332.479 37.355 340.43 37.355C348.593 37.355 356.014 43.4982 356.014 54.6194Z" fill="white"/>
<path d="M426.589 83.9584H441.431V49.5354C441.431 33.3302 431.678 24.4332 418.002 24.4332C410.475 24.4332 404.115 27.6107 400.298 32.5888V25.2805H385.457V83.9584H400.298V51.5478C400.298 42.1213 405.493 37.0373 413.55 37.0373C421.394 37.0373 426.589 42.1213 426.589 51.5478V83.9584Z" fill="white"/>
<path d="M457.876 65.7407C457.876 79.1921 465.403 83.9584 476.64 83.9584H485.969V71.4602H479.079C474.414 71.4602 472.824 69.7655 472.824 65.8466V37.4609H485.969V25.2805H472.824V10.7699H457.876V25.2805H450.88V37.4609H457.876V65.7407Z" fill="white"/>
<path d="M496.644 83.9584H511.486V25.2805H496.644V83.9584ZM504.171 18.29C509.365 18.29 513.288 14.477 513.288 9.60485C513.288 4.73268 509.365 0.919678 504.171 0.919678C498.87 0.919678 495.054 4.73268 495.054 9.60485C495.054 14.477 498.87 18.29 504.171 18.29Z" fill="white"/>
<path d="M540.991 33.7538V25.2805H526.149V111.92H540.991V75.5909C544.595 80.3572 551.168 84.9116 560.391 84.9116C575.444 84.9116 587.212 72.7312 587.212 54.4076C587.212 36.084 575.444 24.3273 560.391 24.3273C551.274 24.3273 544.489 28.7758 540.991 33.7538ZM572.052 54.4076C572.052 65.5288 564.525 71.8839 556.468 71.8839C548.517 71.8839 540.991 65.7407 540.991 54.6194C540.991 43.4982 548.517 37.355 556.468 37.355C564.525 37.355 572.052 43.2864 572.052 54.4076Z" fill="white"/>
<path d="M653.44 25.2805H638.493V57.5851C638.493 67.0117 633.404 72.0957 625.347 72.0957C617.503 72.0957 612.308 67.0117 612.308 57.5851V25.2805H597.466V59.7034C597.466 75.8028 607.325 84.6998 621.001 84.6998C628.316 84.6998 634.782 81.5223 638.493 76.5442V83.9584H653.44V25.2805Z" fill="white"/>
<path d="M682.925 54.7253C682.925 43.3923 688.226 40.0029 697.025 40.0029H700.947V24.4332C692.784 24.4332 686.636 28.3521 682.925 34.3894V25.2805H668.084V83.9584H682.925V54.7253Z" fill="white"/>
<path d="M243.315 176.958H258.156V103.029H243.315V176.958Z" fill="white"/>
<path d="M313.952 176.958H328.794V142.535C328.794 126.33 319.041 117.433 305.365 117.433C297.839 117.433 291.478 120.611 287.662 125.589V118.281H272.82V176.958H287.662V144.548C287.662 135.121 292.856 130.037 300.913 130.037C308.758 130.037 313.952 135.121 313.952 144.548V176.958Z" fill="white"/>
<path d="M344.498 176.958H359.551V130.461H369.834V118.281H359.551V115.844C359.551 109.278 361.989 106.947 369.198 107.159V94.6611C352.66 94.2374 344.498 100.91 344.498 115.315V118.281H337.819V130.461H344.498V176.958Z" fill="white"/>
<path d="M436.168 147.619C436.168 129.084 422.917 117.327 405.955 117.327C388.993 117.327 375.742 129.084 375.742 147.619C375.742 166.049 388.569 177.912 405.531 177.912C422.599 177.912 436.168 166.049 436.168 147.619ZM390.795 147.619C390.795 135.863 397.898 130.249 405.743 130.249C413.588 130.249 420.902 135.863 420.902 147.619C420.902 159.27 413.376 164.99 405.531 164.99C397.58 164.99 390.795 159.27 390.795 147.619Z" fill="white"/>
<path d="M449.387 158.741C449.387 172.192 456.914 176.958 468.151 176.958H477.48V164.46H470.589C465.925 164.46 464.335 162.766 464.335 158.847V130.461H477.48V118.281H464.335V103.77H449.387V118.281H442.39V130.461H449.387V158.741Z" fill="white"/>
<path d="M513.386 129.508C521.018 129.508 527.167 134.38 527.379 142.112H499.498C500.664 134.062 506.283 129.508 513.386 129.508ZM541.266 158.529H525.259C523.351 162.448 519.852 165.625 513.492 165.625C506.071 165.625 500.134 160.753 499.392 152.068H542.327C542.645 150.161 542.751 148.255 542.751 146.348C542.751 128.872 530.771 117.327 513.81 117.327C496.424 117.327 484.339 129.084 484.339 147.619C484.339 166.049 496.742 177.912 513.81 177.912C528.333 177.912 538.086 169.332 541.266 158.529Z" fill="white"/>
<path d="M549.767 147.619C549.767 166.049 561.853 177.912 578.814 177.912C593.444 177.912 603.303 169.65 606.483 157.152H590.475C588.673 162.448 584.857 165.202 578.708 165.202C570.439 165.202 564.927 159.058 564.927 147.619C564.927 136.18 570.439 129.931 578.708 129.931C584.857 129.931 588.779 133.109 590.475 138.087H606.483C603.303 124.953 593.444 117.327 578.814 117.327C561.853 117.327 549.767 129.19 549.767 147.619Z" fill="white"/>
<path d="M617.356 176.958H632.197V144.548C632.197 135.121 637.392 130.037 645.449 130.037C653.294 130.037 658.488 135.121 658.488 144.548V176.958H673.33V142.535C673.33 126.33 663.683 117.433 650.431 117.433C642.587 117.433 636.014 120.611 632.197 125.589V98.58H617.356V176.958Z" fill="white"/>
</svg>
